<svg class="w-5 h-auto" width="14" height="14" viewBox="0 0 14 14" fill="none" xmlns="http://www.w3.org/2000/svg"><g clip-path="url(#clip0_1855_77)"><path d="M0.5 1.8C0.5 1.08203 1.08203 0.5 1.8 0.5H8.3C9.01797 0.5 9.6 1.08203 9.6 1.8V4.4H12.2C12.918 4.4 13.5 4.98203 13.5 5.7V12.2C13.5 12.918 12.918 13.5 12.2 13.5H5.7C4.98203 13.5 4.4 12.918 4.4 12.2V9.6H1.8C1.08203 9.6 0.5 9.01797 0.5 8.3V1.8ZM5.7 9.6V12.2H12.2V5.7H9.6V8.3C9.6 9.01797 9.01797 9.6 8.3 9.6H5.7ZM8.3 8.3V1.8L1.8 1.8V8.3H8.3Z" fill="currentColor"></path></g><defs><clipPath id="clip0_1855_77"><rect width="14" height="14" fill="white"></rect></clipPath></defs></svg>